<?xml version="1.0" encoding="UTF-8" standalone="no"?><!DOCTYPE svg PUBLIC "-//W3C//DTD SVG 1.1//EN" "http://www.w3.org/Graphics/SVG/1.1/DTD/svg11.dtd"><svg width="100%" height="100%" viewBox="0 0 512 512" version="1.1" xmlns="http://www.w3.org/2000/svg" xmlns:xlink="http://www.w3.org/1999/xlink" xml:space="preserve" xmlns:serif="http://www.serif.com/" style="fill-rule:evenodd;clip-rule:evenodd;stroke-linejoin:round;stroke-miterlimit:2;"><path d="M7.9,256c0,-137 111.1,-248.1 248.1,-248.1c137,-0 248.1,111.1 248.1,248.1c0,137 -111.1,248.1 -248.1,248.1c-137,0 -248.1,-111.1 -248.1,-248.1Z" style="fill:#efc849;fill-rule:nonzero;"/><path d="M159.1,106.1c-9.2,-0 -16.7,7.5 -16.7,16.7l0,267.7c0,9.2 7.5,16.7 16.7,16.7l192.4,0c9.2,0 16.7,-7.5 16.7,-16.7l0,-207l-80.7,-77.5l-128.4,0l0,0.1Z" style="fill:#f5f5f5;fill-rule:nonzero;"/><path d="M368.3,183.6l-63.9,0c-9.2,0 -16.7,-7.5 -16.7,-16.7l0,-60.8l80.6,77.5Z" style="fill:#e1e1e1;fill-rule:nonzero;"/><path d="M344.7,206.5c0,2.9 -2.3,5.2 -5.2,5.2l-167.1,0c-2.9,0 -5.2,-2.3 -5.2,-5.2c0,-2.9 2.3,-5.2 5.2,-5.2l167.1,0c2.9,-0.1 5.2,2.3 5.2,5.2Zm0,27.4c0,2.9 -2.3,5.2 -5.2,5.2l-167.1,0c-2.9,0 -5.2,-2.3 -5.2,-5.2c0,-2.9 2.3,-5.2 5.2,-5.2l167.1,0c2.9,-0 5.2,2.3 5.2,5.2Zm0,26.1c0,2.9 -2.3,5.2 -5.2,5.2l-167.1,0c-2.9,0 -5.2,-2.3 -5.2,-5.2c0,-2.9 2.3,-5.2 5.2,-5.2l167.1,0c2.9,0 5.2,2.3 5.2,5.2Zm0,27.4c0,2.9 -2.3,5.2 -5.2,5.2l-167.1,0c-2.9,0 -5.2,-2.3 -5.2,-5.2c0,-2.9 2.3,-5.2 5.2,-5.2l167.1,0c2.9,0 5.2,2.3 5.2,5.2Zm-84.8,22.2l-87.5,0c-2.9,0 -5.2,2.3 -5.2,5.2c0,2.9 2.3,5.2 5.2,5.2l87.5,0c2.9,0 5.2,-2.3 5.2,-5.2c0,-2.8 -2.3,-5.2 -5.2,-5.2Z" style="fill:#c9c9c8;fill-rule:nonzero;"/><g><path d="M291.8,382.7c0,-33 26.7,-59.7 59.7,-59.7c33,0 59.7,26.7 59.7,59.7c0,33 -26.7,59.7 -59.7,59.7c-33,0.1 -59.7,-26.7 -59.7,-59.7Z" style="fill:#49a0ae;fill-rule:nonzero;"/><path d="M397.7,363.1l-7.8,0c-5.9,-13.2 -17.4,-22.7 -32,-25c-16.2,-2.5 -31.8,5 -41,18.3c-4.1,5.9 5.6,11.4 9.6,5.6c12.7,-18.2 39.8,-16.5 51,1.2l-7.2,0c-0.7,0 -1.2,0.3 -1.5,0.7c-0.5,0.5 -0.7,1.3 -0.2,2.1c4.6,7.1 9.2,14.3 13.8,21.4c0.8,1.2 2.4,1.2 3.2,0c4.6,-7.2 9.1,-14.3 13.7,-21.5c0.7,-1.2 -0.3,-2.8 -1.6,-2.8Zm-19.7,39.2c-12.7,18.2 -39.8,16.5 -51,-1.2l7.2,0c0.7,0 1.2,-0.3 1.5,-0.7c0.5,-0.5 0.7,-1.3 0.2,-2.1c-4.6,-7.1 -9.2,-14.3 -13.8,-21.4c-0.8,-1.2 -2.4,-1.2 -3.2,0c-4.6,7.2 -9.1,14.3 -13.7,21.5c-0.8,1.2 0.2,2.8 1.6,2.8l7.8,0c5.9,13.2 17.4,22.7 32,25c16.2,2.5 31.8,-5 41,-18.2c4.1,-6 -5.5,-11.6 -9.6,-5.7Z" style="fill:#fff;fill-rule:nonzero;"/></g><g><path d="M265.752,292.057c0,-11.942 -9.695,-21.638 -21.638,-21.638l-138.971,0c-11.943,0 -21.638,9.696 -21.638,21.638l-0,43.276c-0,11.943 9.695,21.638 21.638,21.638l138.971,0c11.943,0 21.638,-9.695 21.638,-21.638l0,-43.276Z" style="fill:#f15b6c;"/><path d="M107.837,339.48l-0,-51.539l16.699,0c6.328,0 10.453,0.258 12.375,0.774c2.953,0.773 5.426,2.455 7.418,5.045c1.992,2.59 2.988,5.935 2.988,10.037c0,3.164 -0.574,5.824 -1.723,7.98c-1.148,2.157 -2.607,3.85 -4.377,5.08c-1.769,1.231 -3.568,2.045 -5.396,2.444c-2.484,0.492 -6.082,0.738 -10.793,0.738l-6.785,0l-0,19.441l-10.406,0Zm10.406,-42.82l-0,14.625l5.695,0c4.102,0 6.844,-0.269 8.227,-0.808c1.382,-0.539 2.466,-1.383 3.252,-2.532c0.785,-1.148 1.177,-2.484 1.177,-4.007c0,-1.875 -0.55,-3.422 -1.652,-4.641c-1.102,-1.219 -2.496,-1.981 -4.184,-2.285c-1.242,-0.235 -3.738,-0.352 -7.488,-0.352l-5.027,0Z" style="fill:#fff;fill-rule:nonzero;"/><path d="M155.825,287.941l19.019,0c4.289,0 7.559,0.329 9.809,0.985c3.023,0.89 5.613,2.472 7.769,4.746c2.157,2.273 3.797,5.057 4.922,8.349c1.125,3.293 1.688,7.354 1.688,12.182c-0,4.242 -0.527,7.899 -1.582,10.969c-1.289,3.75 -3.129,6.785 -5.52,9.105c-1.804,1.758 -4.242,3.129 -7.312,4.114c-2.297,0.726 -5.367,1.089 -9.211,1.089l-19.582,0l-0,-51.539Zm10.406,8.719l0,34.137l7.77,-0c2.906,-0 5.004,-0.164 6.293,-0.492c1.687,-0.422 3.087,-1.137 4.201,-2.145c1.113,-1.008 2.021,-2.666 2.724,-4.974c0.703,-2.309 1.055,-5.456 1.055,-9.44c0,-3.984 -0.352,-7.043 -1.055,-9.176c-0.703,-2.132 -1.687,-3.797 -2.953,-4.992c-1.265,-1.195 -2.871,-2.004 -4.816,-2.426c-1.453,-0.328 -4.301,-0.492 -8.543,-0.492l-4.676,0Z" style="fill:#fff;fill-rule:nonzero;"/><path d="M207.926,339.48l0,-51.539l35.332,0l0,8.719l-24.925,0l-0,12.199l21.515,0l0,8.719l-21.515,0l-0,21.902l-10.407,0Z" style="fill:#fff;fill-rule:nonzero;"/></g></svg>